<?xml version="1.0" encoding="UTF-8"?>
<svg version="1.1" xmlns="http://www.w3.org/2000/svg" width="1000" height="215">
<path d="M0 0 C330 0 660 0 1000 0 C1000 70.95 1000 141.9 1000 215 C670 215 340 215 0 215 C0 144.05 0 73.1 0 0 Z " fill="#FEFEFD" transform="translate(0,0)"/>
<path d="M0 0 C-0.61069336 -0.01571045 -1.22138672 -0.0314209 -1.85058594 -0.04760742 C-43.43797628 -0.96123474 -89.18689433 4.95461053 -122 33 C-127.51575272 38.33354808 -127.51575272 38.33354808 -131 45 C-130.608125 44.59910156 -130.21625 44.19820312 -129.8125 43.78515625 C-103.10702885 18.40344768 -60.18895044 11.79364918 -25 11.6875 C-24.31343323 11.68373352 -23.62686646 11.67996704 -22.91949463 11.67608643 C-10.43148357 11.64127377 1.94415546 12.55547299 14 16 C14 16.33 14 16.66 14 17 C12.72660767 16.97643433 12.72660767 16.97643433 11.42749023 16.95239258 C-31.10712902 16.27232075 -76.7508725 21.70685934 -110 51 C-114.94747172 55.88769224 -114.94747172 55.88769224 -118 62 C-117.608125 61.59910156 -117.21625 61.19820313 -116.8125 60.78515625 C-97.03553744 41.98851727 -66.28295552 33.60644701 -40 30 C-39.31180176 29.90501221 -38.62360352 29.81002441 -37.91455078 29.7121582 C-30.17774088 28.7856188 -22.4139418 28.81389717 -14.63378906 28.81469727 C-12.26869519 28.81251723 -9.90407394 28.79432055 -7.5390625 28.77539062 C4.60111318 28.73064387 16.24815206 29.70948258 28 33 C28 33.33 28 33.66 28 34 C27.04448242 33.98428955 26.08896484 33.9685791 25.10449219 33.95239258 C-1.10107281 33.47519032 -1.10107281 33.47519032 -27 37 C-27.84095215 37.17160645 -28.6819043 37.34321289 -29.54833984 37.52001953 C-56.93146213 43.16410018 -88.71943451 53.57915177 -105 78 C-108.9938939 84.49007759 -108.85694181 91.60063709 -108 99 C-105.36583628 108.00005938 -99.57689117 113.43694094 -91.58203125 117.9140625 C-86.19109515 120.72099593 -80.81251521 123.18911 -75 125 C-75 125.33 -75 125.66 -75 126 C-92.3140195 125.5886518 -111.69613171 118.91867651 -124.4140625 106.8671875 C-127.36637442 103.39131288 -131 98.71905831 -131 94 C-131.58910156 93.74476562 -132.17820312 93.48953125 -132.78515625 93.2265625 C-138.74725677 89.9247996 -142.42771547 83.45296474 -145.81640625 77.7421875 C-147.47462672 75.30137453 -149.67478788 73.78862471 -152 72 C-157.53380203 64.72700305 -158.95625863 57.98637921 -158 49 C-154.58044462 34.69413855 -142.89733437 25.1647059 -130.94140625 17.71777344 C-99.19962233 -1.20962846 -35.0352918 -18.70928967 0 0 Z " fill="#F18F06" transform="translate(497,7)"/>
<path d="M0 0 C18.47979939 1.28060683 38.21564335 6.88982228 51.15234375 20.7421875 C53.30468653 23.37232308 55.00894581 26.09664337 56.6953125 29.0390625 C58.21417814 31.32190846 59.9554876 33.0452391 61.9375 34.9375 C65.42153166 38.26523865 67.87315425 41.70630855 70.42578125 45.76953125 C72.14209022 48.20132387 74.03818956 50.13214848 76.1875 52.1875 C81.44370086 57.33314979 83.15303172 60.95613721 83.375 68.375 C83.03290531 79.99306213 78.14692212 87.18332846 69.74609375 95.1328125 C59.22950879 103.96882293 46.77178531 110.13829201 34 115 C33.3301709 115.25523437 32.6603418 115.51046875 31.97021484 115.7734375 C19.90094247 120.27677256 7.72102871 123.05302794 -5 125 C-5.7739209 125.11859375 -6.5478418 125.2371875 -7.34521484 125.359375 C-24.97407691 127.91858764 -43.36900254 128.13800937 -61.0625 126.125 C-62.09721436 126.00753418 -62.09721436 126.00753418 -63.15283203 125.88769531 C-67.73242012 125.26757988 -67.73242012 125.26757988 -70 123 C-69.43007324 122.9906543 -68.86014648 122.98130859 -68.27294922 122.97167969 C-45.86251163 122.51948095 -22.39924286 121.13308095 -1 114 C-0.24638184 113.75910645 0.50723633 113.51821289 1.28369141 113.27001953 C19.35765684 107.4725759 45.54161165 98.76845245 55.1796875 80.80078125 C55.45039063 80.20652344 55.72109375 79.61226563 56 79 C55.37738281 79.53367187 54.75476563 80.06734375 54.11328125 80.6171875 C33.71540909 97.06066045 7.75701584 103.97717693 -17.5625 108.625 C-18.22266113 108.74834717 -18.88282227 108.87169434 -19.56298828 108.9987793 C-41.98421614 112.94694823 -64.88330379 112.00924161 -87 107 C-87 106.67 -87 106.34 -87 106 C-85.57457886 105.97812622 -85.57457886 105.97812622 -84.12036133 105.95581055 C-57.42376099 105.55129957 -57.42376099 105.55129957 -31 102 C-30.28360352 101.86754883 -29.56720703 101.73509766 -28.82910156 101.59863281 C-3.30329902 96.77384725 27.3457419 85.54330388 42.9609375 63.58203125 C43.30382812 63.05996094 43.64671875 62.53789062 44 62 C43.29359375 62.58265625 42.5871875 63.1653125 41.859375 63.765625 C12.38388958 86.79838137 -26.43103606 94.47013809 -63 94.4375 C-64.19689453 94.43796829 -64.19689453 94.43796829 -65.41796875 94.43844604 C-91.42822343 94.36085864 -91.42822343 94.36085864 -99 90 C-98.16678223 89.9906543 -97.33356445 89.98130859 -96.47509766 89.97167969 C-72.67642609 89.63883113 -48.80124745 88.5161093 -26 81 C-25.17580566 80.73203613 -24.35161133 80.46407227 -23.50244141 80.18798828 C-3.17841481 73.47383335 21.00380528 63.94836969 31.375 43.6875 C34.22181883 37.58540572 35.34141265 31.95205432 33.12890625 25.43359375 C27.42283757 13.17957741 17.99957967 8.11421774 6 3 C4.01138729 2.3000972 2.01516288 1.61932463 0 1 C0 0.67 0 0.34 0 0 Z " fill="#F18F06" transform="translate(432,86)"/>
<path d="M0 0 C4.00775735 2.0780964 6.93927464 4.70383423 10 8 C10.556875 7.236875 11.11375 6.47375 11.6875 5.6875 C14.6410262 2.2550236 16.73911897 0.31053977 21.33203125 -0.3203125 C27.0596245 -0.57792539 30.60283457 0.02161223 35 4 C38.67149219 8.60948494 39.49409433 11.61518043 39.45410156 17.47412109 C39.45468567 18.19676147 39.45526978 18.91940186 39.45587158 19.66394043 C39.45310187 22.03427462 39.42206532 24.40332512 39.390625 26.7734375 C39.38315858 28.42395338 39.37746754 30.07447817 39.37347412 31.7250061 C39.35824917 36.05544794 39.31899501 40.38534759 39.2746582 44.71557617 C39.23363735 49.1397366 39.2154486 53.56398519 39.1953125 57.98828125 C39.15249705 66.65912992 39.08217347 75.32943491 39 84 C32.07 84 25.14 84 18 84 C17.97494385 82.08219727 17.9498877 80.16439453 17.92407227 78.18847656 C17.84015625 71.85011232 17.75189087 65.51182031 17.66066074 59.17355728 C17.60551043 55.33090281 17.5521032 51.48824062 17.50268555 47.64550781 C17.4549254 43.93665809 17.40257864 40.22789881 17.34705925 36.51915741 C17.32668841 35.1046143 17.30796675 33.69004644 17.29092598 32.27545929 C17.26676528 30.29328191 17.23618277 28.31118596 17.20532227 26.32910156 C17.18200584 24.63699554 17.18200584 24.63699554 17.15821838 22.91070557 C17.02374524 20.43683547 16.71640172 18.35938887 16 16 C14.35 16.33 12.7 16.66 11 17 C10.67 39.44 10.34 61.88 10 85 C2.74 85 -4.52 85 -12 85 C-12.33 61.9 -12.66 38.8 -13 15 C-17.94463635 16.33563616 -17.94463635 16.33563616 -19 19 C-19.12048151 21.06223352 -19.17740927 23.12828629 -19.20532227 25.19384766 C-19.22526749 26.49504547 -19.24521271 27.79624329 -19.26576233 29.13687134 C-19.28274673 30.5626005 -19.29962553 31.98833093 -19.31640625 33.4140625 C-19.33697521 34.86852613 -19.35797166 36.32298377 -19.37937927 37.7774353 C-19.43460604 41.60786088 -19.4840126 45.43834045 -19.53222656 49.26885986 C-19.5824372 53.1766847 -19.63812554 57.084431 -19.69335938 60.9921875 C-19.80094836 68.66139372 -19.90188552 76.33066564 -20 84 C-26.93 84 -33.86 84 -41 84 C-41 56.94 -41 29.88 -41 2 C-33.74 2 -26.48 2 -19 2 C-18.67 3.32 -18.34 4.64 -18 6 C-17.05125 5.195625 -16.1025 4.39125 -15.125 3.5625 C-10.33231471 -0.50086362 -6.19562679 -0.69581655 0 0 Z " fill="#F18D02" transform="translate(879,73)"/>
<path d="M0 0 C0.82564453 -0.01611328 1.65128906 -0.03222656 2.50195312 -0.04882812 C10.43303115 -0.05507799 17.23698775 1.85768446 23.20703125 7.30859375 C29.94179066 15.7147533 31.5388452 26.87954165 30.8125 37.3125 C28.4480847 55.89270838 23.8325648 75.84783375 8.8125 88.3125 C-1.40082111 96.05844453 -13.56294481 98.31498823 -26.1875 97.3125 C-30.71901261 95.78098739 -30.71901261 95.78098739 -32.1875 94.3125 C-33.21402468 84.50547704 -30.91097613 75.34648225 -28.57421875 65.92578125 C-28.19918168 64.37291561 -27.82524532 62.81978377 -27.4523468 61.2664032 C-26.67284816 58.03124499 -25.88463522 54.79839302 -25.08911133 51.56713867 C-24.07512038 47.44819535 -23.07645169 43.32574055 -22.08346844 39.20168781 C-21.12731021 35.2334397 -20.16355787 31.26704774 -19.19921875 27.30078125 C-19.01897345 26.55676874 -18.83872814 25.81275623 -18.65302086 25.04619789 C-12.55629351 -0.04788823 -12.55629351 -0.04788823 0 0 Z " fill="#FEFEFD" transform="translate(68.1875,55.6875)"/>
<path d="M0 0 C2.25 0.3125 2.25 0.3125 3.25 1.3125 C3.17725566 8.59444313 1.32842247 15.48578865 -0.65625 22.4375 C-1.08339294 23.97881592 -1.08339294 23.97881592 -1.51916504 25.55126953 C-2.72574304 29.90414142 -3.95136316 34.25159066 -5.17529297 38.59960938 C-6.07143445 41.79375809 -6.95777474 44.99051923 -7.84375 48.1875 C-8.11981079 49.15445801 -8.39587158 50.12141602 -8.68029785 51.11767578 C-10.35903483 57.17997161 -11.34256703 63.03419252 -11.75 69.3125 C-7.72514176 67.49530061 -5.79118539 65.17841321 -3.0625 61.6875 C-1.64373827 59.88095887 -0.21119126 58.08489832 1.25 56.3125 C1.58 56.3125 1.91 56.3125 2.25 56.3125 C2.04578606 65.50212716 -3.8527195 72.82180445 -10.25 79 C-13.33290167 81.56733109 -14.56287184 82.27929984 -18.625 83 C-21.92264384 82.27451835 -22.7371812 81.88735405 -24.75 79.3125 C-25.49637369 71.60774663 -23.65442132 64.68324808 -21.75 57.25 C-21.32074219 55.52233398 -21.32074219 55.52233398 -20.8828125 53.75976562 C-20.18117814 50.94153428 -19.47006884 48.12606687 -18.75 45.3125 C-19.06638428 45.80016846 -19.38276855 46.28783691 -19.70874023 46.7902832 C-39.02049681 76.44774841 -39.02049681 76.44774841 -50.75 82.3125 C-54.99372631 82.92539649 -59.02315058 83.22153367 -62.89453125 81.18359375 C-67.73614467 77.2797244 -69.38190099 73.40840643 -70.12109375 67.19140625 C-70.54214176 46.1637735 -59.39169809 29.34419393 -45.375 14.5625 C-36.99828798 6.37419154 -28.30386106 1.97925136 -16.625 2.09375 C-13.75 2.3125 -13.75 2.3125 -10.3125 3.5625 C-9.0440625 3.93375 -9.0440625 3.93375 -7.75 4.3125 C-2.19753363 0.24971973 -2.19753363 0.24971973 0 0 Z " fill="#F18F07" transform="translate(298.75,77.6875)"/>
<path d="M0 0 C2.25 0.3125 2.25 0.3125 3.25 1.3125 C3.82881165 7.85346467 2.02860639 13.55605749 0.22265625 19.80078125 C-0.08571671 20.89915817 -0.39408966 21.9975351 -0.71180725 23.12919617 C-1.69512743 26.63028699 -2.68995661 30.12793712 -3.6875 33.625 C-4.99796197 38.22259309 -6.29702329 42.82320066 -7.58984375 47.42578125 C-7.89091537 48.46777176 -8.191987 49.50976227 -8.50218201 50.58332825 C-10.25695825 56.83123225 -11.35574371 62.83155241 -11.75 69.3125 C-9.30519921 69.12421228 -9.30519921 69.12421228 -6.75 68.3125 C-6.03556638 67.00413964 -5.37635588 65.66523816 -4.75 64.3125 C-3.76030923 62.8739044 -2.73849332 61.45693831 -1.6875 60.0625 C-1.16027344 59.35609375 -0.63304687 58.6496875 -0.08984375 57.921875 C0.35230469 57.39078125 0.79445313 56.8596875 1.25 56.3125 C1.58 56.3125 1.91 56.3125 2.25 56.3125 C2.25 65.40040631 -2.88663669 71.08328789 -8.8125 77.5703125 C-12.09846589 80.74075615 -13.99186044 82.17578631 -18.5625 83 C-21.75 82.3125 -21.75 82.3125 -23.6875 80.8125 C-26.86046051 73.34671057 -23.64312187 64.75707386 -21.75 57.3125 C-21.46382812 56.15621094 -21.17765625 54.99992187 -20.8828125 53.80859375 C-20.18011847 50.97439451 -19.46899805 48.14259871 -18.75 45.3125 C-19.06638428 45.80016846 -19.38276855 46.28783691 -19.70874023 46.7902832 C-39.02049681 76.44774841 -39.02049681 76.44774841 -50.75 82.3125 C-55.90103689 82.96101184 -59.6403367 82.95812229 -64.1875 80.3125 C-69.55706437 74.02618073 -70.3849717 67.93081843 -70.15234375 59.86328125 C-68.10484131 41.79357525 -57.33937822 26.75178131 -44.75 14.3125 C-43.71552734 13.26255859 -43.71552734 13.26255859 -42.66015625 12.19140625 C-36.06368311 5.91868639 -28.63637681 2.0573817 -19.4375 1.875 C-15.94071077 2.00601665 -13.6328073 2.35511553 -10.3125 3.5625 C-9.0440625 3.93375 -9.0440625 3.93375 -7.75 4.3125 C-2.19753363 0.24971973 -2.19753363 0.24971973 0 0 Z " fill="#F18F07" transform="translate(181.75,77.6875)"/>
<path d="M0 0 C4.76108024 4.09784518 8.06148249 7.70772575 9 14 C9.08557873 16.2380233 9.1177432 18.47836264 9.11352539 20.71801758 C9.11367142 21.37223694 9.11381744 22.0264563 9.1139679 22.70050049 C9.11327494 24.84854526 9.10551164 26.99650175 9.09765625 29.14453125 C9.09578988 30.63954114 9.09436701 32.13455165 9.09336853 33.62956238 C9.08956064 37.55371811 9.07974518 41.4778365 9.06866455 45.40197754 C9.05841321 49.41055801 9.05386294 53.41914455 9.04882812 57.42773438 C9.03812129 65.28517525 9.02053856 73.14257867 9 81 C2.07 81 -4.86 81 -12 81 C-12 79.02 -12 77.04 -12 75 C-12.66 75 -13.32 75 -14 75 C-14.309375 76.1446875 -14.309375 76.1446875 -14.625 77.3125 C-16.51144297 80.99963853 -18.10513874 81.65450248 -22 83 C-27.94229071 83.99953504 -32.14263806 82.91547374 -37.2734375 79.875 C-42.55206013 74.14255914 -42.46880751 66.71283196 -42.375 59.375 C-42.39240234 58.00214844 -42.39240234 58.00214844 -42.41015625 56.6015625 C-42.38735925 51.34305384 -42.03543937 47.48747187 -39 43 C-33.91162358 38.24860215 -21.20568167 30 -14 30 C-13.97308315 27.54159395 -13.95320198 25.08348118 -13.9375 22.625 C-13.92912109 21.92632812 -13.92074219 21.22765625 -13.91210938 20.5078125 C-13.8164558 16.62704624 -13.8164558 16.62704624 -15 13 C-16.32 13 -17.64 13 -19 13 C-19.33 18.94 -19.66 24.88 -20 31 C-27.26 31 -34.52 31 -42 31 C-42.54049512 10.82151553 -42.54049512 10.82151553 -34.7734375 2.54296875 C-25.82141414 -5.24568594 -10.25226975 -5.64848714 0 0 Z " fill="#F18E04" transform="translate(802,76)"/>
<path d="M0 0 C6.86545133 4.42440197 9.66223242 10.47993846 11.47265625 18.2109375 C12.57236614 26.1125567 12.16138866 34.03815966 12 42 C2.1 42 -7.8 42 -18 42 C-17.67 49.92 -17.34 57.84 -17 66 C-15.35 66.33 -13.7 66.66 -12 67 C-10.45049732 65.45049732 -10.78344807 63.90009406 -10.68359375 61.74609375 C-10.64548584 60.9770874 -10.60737793 60.20808105 -10.56811523 59.41577148 C-10.50346069 57.9415271 -10.50346069 57.9415271 -10.4375 56.4375 C-10.293125 53.323125 -10.14875 50.20875 -10 47 C-3.07 47 3.86 47 11 47 C11.75992511 68.73385819 11.75992511 68.73385819 4.35546875 76.7890625 C-2.24720019 83.0787381 -9.67071311 83.52492677 -18.48828125 83.375 C-25.31668953 82.64582626 -30.63915878 79.74373253 -35.4375 74.875 C-42.32316593 65.39702151 -41.4685849 53.36923086 -41.39111328 42.20239258 C-41.37501321 39.43976619 -41.39103464 36.67859799 -41.41015625 33.91601562 C-41.43641361 12.05300752 -41.43641361 12.05300752 -34.6171875 3.5390625 C-25.42174463 -5.21215608 -11.04319025 -5.49799856 0 0 Z " fill="#F18F05" transform="translate(720,76)"/>
<path d="M0 0 C4.44045577 2.70823837 7.64225252 5.49260227 9.97265625 10.203125 C10.89266624 15.58021936 10.3386155 20.75948117 9.97265625 26.203125 C3.37265625 26.203125 -3.22734375 26.203125 -10.02734375 26.203125 C-10.35734375 22.243125 -10.68734375 18.283125 -11.02734375 14.203125 C-13.50234375 13.708125 -13.50234375 13.708125 -16.02734375 13.203125 C-16.16344288 14.93007175 -16.25983603 16.66017222 -16.33984375 18.390625 C-16.39785156 19.35355469 -16.45585938 20.31648438 -16.515625 21.30859375 C-15.82603671 25.39647311 -14.21319324 26.58264 -11.02734375 29.203125 C-7.49728223 31.64161636 -3.83986162 33.86472811 -0.17773438 36.09765625 C5.63040857 39.73094391 10.05085854 43.35489155 11.97265625 50.203125 C12.27050186 53.16687271 12.29737655 56.10126069 12.28515625 59.078125 C12.30126953 59.85542969 12.31738281 60.63273437 12.33398438 61.43359375 C12.3394611 67.95089291 10.69371983 72.24289564 7.41015625 77.890625 C1.71999894 83.28897937 -4.8530111 84.48627619 -12.52734375 84.765625 C-20.15672031 84.54213821 -25.91557741 82.83745875 -31.67578125 77.74609375 C-38.20866675 70.59012957 -37.1984121 62.26974774 -37.02734375 53.203125 C-30.42734375 53.203125 -23.82734375 53.203125 -17.02734375 53.203125 C-16.79947917 56.5234375 -16.57161458 59.84375 -16.34375 63.1640625 C-16.21649439 66.11831401 -16.21649439 66.11831401 -15.02734375 68.203125 C-12.55234375 67.708125 -12.55234375 67.708125 -10.02734375 67.203125 C-10.02734375 62.913125 -10.02734375 58.623125 -10.02734375 54.203125 C-11.67734375 53.543125 -13.32734375 52.883125 -15.02734375 52.203125 C-34.38208587 40.49535184 -34.38208587 40.49535184 -37.578125 30.4765625 C-39.06878416 22.93253094 -39.43144336 13.50174981 -35.296875 6.78125 C-27.24406597 -3.22901107 -11.61869183 -4.92507168 0 0 Z " fill="#F18E04" transform="translate(977.02734375,76.796875)"/>
<path d="M0 0 C6.08314386 -0.07463276 12.16601612 -0.12882912 18.24951172 -0.16479492 C20.31531421 -0.17980192 22.38108528 -0.200214 24.44677734 -0.22631836 C27.43074338 -0.26305961 30.41428507 -0.27980764 33.3984375 -0.29296875 C34.76468765 -0.31619453 34.76468765 -0.31619453 36.15853882 -0.33988953 C46.69448039 -0.34260196 56.06817191 2.56552355 63.91015625 9.75 C74.22055462 20.60765943 74.53221753 33.60945628 74.34375 47.77734375 C74.05040003 55.84324571 72.18070617 62.63192799 69 70 C68.5771875 70.98871094 68.154375 71.97742188 67.71875 72.99609375 C61.33401662 86.08108513 49.30061514 98.01976761 35.65234375 103.17578125 C27.99953661 105.55389952 21.28295939 106.32623513 13.28125 106.4140625 C11.633526 106.44311172 11.633526 106.44311172 9.95251465 106.4727478 C6.46842033 106.53218863 2.98429234 106.57878667 -0.5 106.625 C-2.87240968 106.66321244 -5.24480597 106.70226605 -7.6171875 106.7421875 C-13.41133885 106.83786078 -19.20557187 106.92301069 -25 107 C-25.33 105.68 -25.66 104.36 -26 103 C-25.31292969 102.68546875 -24.62585937 102.3709375 -23.91796875 102.046875 C-23.01691406 101.61890625 -22.11585937 101.1909375 -21.1875 100.75 C-20.29417969 100.33234375 -19.40085937 99.9146875 -18.48046875 99.484375 C-14.42127325 97.05525013 -13.23992407 94.79596816 -11.8684082 90.24584961 C-11.50252949 88.7170404 -11.14735208 87.18564525 -10.80078125 85.65234375 C-10.50633873 84.40392197 -10.50633873 84.40392197 -10.20594788 83.13027954 C-9.56501616 80.40153228 -8.93829349 77.66975538 -8.3125 74.9375 C-7.87320054 73.04599337 -7.43325278 71.1546372 -6.99267578 69.26342773 C-6.09398985 65.39911512 -5.20129949 61.53347754 -4.31201172 57.66699219 C-3.28072146 53.19435909 -2.22449735 48.72829378 -1.15281677 44.2651825 C-0.39562376 41.10828405 0.35157553 37.94907215 1.09683228 34.78933716 C1.4446658 33.32281701 1.79627686 31.85718689 2.15194702 30.39254761 C4.13741438 22.19414834 5.54108056 14.47804209 5 6 C3.02 5.34 1.04 4.68 -1 4 C-0.67 2.68 -0.34 1.36 0 0 Z M19 9 C17.88004193 11.87571381 17.18486022 14.81852298 16.484375 17.8203125 C16.15869286 19.13949173 16.15869286 19.13949173 15.82643127 20.48532104 C15.12010799 23.36196882 14.43447339 26.24308189 13.75 29.125 C13.26813222 31.1148163 12.78529559 33.10439822 12.30151367 35.09375 C11.32420787 39.12341519 10.35590656 43.1550988 9.39404297 47.18847656 C8.31894794 51.68844691 7.21751635 56.1810937 6.0977478 60.6701355 C5.33522531 63.73202047 4.58450728 66.79671289 3.83679199 69.86224365 C3.49224117 71.26712056 3.14364578 72.67101285 2.79064941 74.0737915 C0.7339635 82.27839083 -1.15545452 90.50193511 0 99 C3.33147545 102.33147545 6.93363258 102.17634891 11.5 102.25 C25.11029831 102.1172166 35.8507295 97.71481943 45.67578125 88.4765625 C58.37589863 74.94400045 63.46648759 52.88521508 63.21484375 34.7109375 C62.43697554 24.89565503 59.48154929 15.89302534 52.125 9.125 C45.8891566 4.88462649 39.64158892 4.63638942 32.3125 4.625 C31.47138672 4.60050781 30.63027344 4.57601562 29.76367188 4.55078125 C28.95091797 4.54691406 28.13816406 4.54304688 27.30078125 4.5390625 C26.57028564 4.53084473 25.83979004 4.52262695 25.0871582 4.51416016 C21.94696541 5.24512093 20.93463383 6.41581943 19 9 Z " fill="#F19008" transform="translate(36,51)"/>
<path d="M0 0 C7.59 0 15.18 0 23 0 C23 4.29 23 8.58 23 13 C24.98 13 26.96 13 29 13 C29 17.62 29 22.24 29 27 C27.02 27 25.04 27 23 27 C23.495 53.235 23.495 53.235 24 80 C25.98 80.33 27.96 80.66 30 81 C30 85.62 30 90.24 30 95 C27.14524694 95.08156437 24.29286435 95.14076372 21.4375 95.1875 C20.63763672 95.21263672 19.83777344 95.23777344 19.01367188 95.26367188 C13.55308947 95.33053615 9.81482768 94.63800903 5 92 C1.18978723 87.18709966 -0.1271365 83.57574215 -0.11352539 77.51879883 C-0.11344986 76.39786331 -0.11337433 75.2769278 -0.11329651 74.12202454 C-0.10813522 72.91257675 -0.10297394 71.70312897 -0.09765625 70.45703125 C-0.0962413 69.21829758 -0.09482635 67.9795639 -0.09336853 66.70329285 C-0.08871602 63.41368463 -0.0797339 60.1241254 -0.06866455 56.83453369 C-0.05842629 53.47628377 -0.05386574 50.11802667 -0.04882812 46.75976562 C-0.03779145 40.17315788 -0.02104767 33.58658295 0 27 C-1.65 27 -3.3 27 -5 27 C-5 22.38 -5 17.76 -5 13 C-3.35 13 -1.7 13 0 13 C0 8.71 0 4.42 0 0 Z " fill="#F28F07" transform="translate(551,63)"/>
<path d="M0 0 C0 9.57 0 19.14 0 29 C-5.445 30.485 -5.445 30.485 -11 32 C-11.97241945 34.91725834 -12.15167819 36.88803439 -12.20532227 39.93041992 C-12.22526749 40.93123093 -12.24521271 41.93204193 -12.26576233 42.96318054 C-12.28247482 44.04138565 -12.29918732 45.11959076 -12.31640625 46.23046875 C-12.33718735 47.33602615 -12.35796844 48.44158356 -12.37937927 49.5806427 C-12.44482332 53.1161979 -12.50373603 56.65182806 -12.5625 60.1875 C-12.6056901 62.58269008 -12.64930454 64.97787255 -12.69335938 67.37304688 C-12.80129889 73.24862217 -12.90041108 79.12425344 -13 85 C-20.59 85 -28.18 85 -36 85 C-36 57.28 -36 29.56 -36 1 C-28.74 1 -21.48 1 -14 1 C-13.67 3.64 -13.34 6.28 -13 9 C-12.62488281 8.51789063 -12.24976563 8.03578125 -11.86328125 7.5390625 C-8.49714815 3.38438941 -5.74428629 0 0 0 Z " fill="#F18E04" transform="translate(653,73)"/>
<path d="M0 0 C2.4375 1.4375 2.4375 1.4375 4 4 C6.66822254 17.3159408 -3.06452775 30.37033837 -10 41 C-25.66622702 64.51759954 -25.66622702 64.51759954 -34 67 C-37.6875 67.0625 -37.6875 67.0625 -41 66 C-43.67729909 62.45905604 -44.61298612 58.94876693 -44.40234375 54.5 C-41.80685771 38.37270813 -32.91770857 21.95107193 -22 10 C-21.41476563 9.33484375 -20.82953125 8.6696875 -20.2265625 7.984375 C-14.56854213 1.89112229 -8.56787901 -2.63627047 0 0 Z " fill="#FEFDFB" transform="translate(167,84)"/>
<path d="M0 0 C2.4375 1.4375 2.4375 1.4375 4 4 C6.66713515 17.3105141 -3.06013396 30.37664567 -10 41 C-24.89046003 63.2585818 -24.89046003 63.2585818 -34 67 C-37.75 67.125 -37.75 67.125 -41 66 C-44.17451884 61.69903899 -44.21557578 58.20698421 -44 53 C-41.34569772 37.39111792 -32.69883311 21.52872163 -22 10 C-21.41605469 9.33742188 -20.83210938 8.67484375 -20.23046875 7.9921875 C-14.57715437 1.892223 -8.56828547 -2.63639553 0 0 Z " fill="#FEFDFB" transform="translate(284,84)"/>
<path d="M0 0 C2.9375 0.1875 2.9375 0.1875 3.9375 1.1875 C3.50979395 7.92387024 2.01535756 13.77324404 -0.0625 20.1875 C4.2275 20.1875 8.5175 20.1875 12.9375 20.1875 C12.6075 21.5075 12.2775 22.8275 11.9375 24.1875 C5.5025 24.6825 5.5025 24.6825 -1.0625 25.1875 C-2.73730269 31.43074554 -4.40958037 37.67466006 -6.07958984 43.91918945 C-6.64726676 46.04046595 -7.21561587 48.16156269 -7.78466797 50.2824707 C-8.60563979 53.34278337 -9.42413852 56.40374867 -10.2421875 59.46484375 C-10.49435028 60.40271225 -10.74651306 61.34058075 -11.00631714 62.30686951 C-14.27470755 74.08222321 -14.27470755 74.08222321 -15.0625 86.1875 C-11.03102064 84.68679513 -9.61865711 82.36764605 -7.4375 78.75 C-6.84710938 77.78191406 -6.25671875 76.81382812 -5.6484375 75.81640625 C-5.12507813 74.94886719 -4.60171875 74.08132812 -4.0625 73.1875 C-3.4025 72.1975 -2.7425 71.2075 -2.0625 70.1875 C-0.5775 70.6825 -0.5775 70.6825 0.9375 71.1875 C-1.00521342 79.39006776 -6.87653843 86.65269228 -13.0625 92.1875 C-13.8875 92.950625 -14.7125 93.71375 -15.5625 94.5 C-18.0625 96.1875 -18.0625 96.1875 -20.625 96.75 C-23.0625 96.1875 -23.0625 96.1875 -25.375 94.25 C-29.34509621 87.04501057 -26.45121664 78.18673324 -24.625 70.625 C-24.36638184 69.52687988 -24.10776367 68.42875977 -23.84130859 67.29736328 C-20.35523095 52.811311 -16.20503216 38.49680782 -12.0625 24.1875 C-15.6925 24.1875 -19.3225 24.1875 -23.0625 24.1875 C-22.7325 22.8675 -22.4025 21.5475 -22.0625 20.1875 C-18.1025 20.1875 -14.1425 20.1875 -10.0625 20.1875 C-9.794375 18.516875 -9.52625 16.84625 -9.25 15.125 C-6.5749149 0.40254581 -6.5749149 0.40254581 0 0 Z " fill="#F19008" transform="translate(220.0625,62.8125)"/>
<path d="M0 0 C0.0289337 3.79165074 0.04677601 7.58327327 0.0625 11.375 C0.07087891 12.45523438 0.07925781 13.53546875 0.08789062 14.6484375 C0.09111328 15.6796875 0.09433594 16.7109375 0.09765625 17.7734375 C0.10289307 18.72653809 0.10812988 19.67963867 0.11352539 20.66162109 C0 23 0 23 -1 25 C-2.65 25 -4.3 25 -6 25 C-7.61385767 21.77228467 -7.30949745 18.29309223 -7.375 14.75 C-7.41238281 13.99847656 -7.44976563 13.24695313 -7.48828125 12.47265625 C-7.55335205 8.3298153 -7.23633173 5.74803846 -4.6015625 2.453125 C-2 0 -2 0 0 0 Z " fill="#FDF5EA" transform="translate(789,119)"/>
<path d="M0 0 C4.70588235 0.70588235 4.70588235 0.70588235 6 2 C6.07271741 4.35313555 6.08370868 6.70833668 6.0625 9.0625 C6.05347656 10.35285156 6.04445313 11.64320312 6.03515625 12.97265625 C6.02355469 13.97167969 6.01195312 14.97070312 6 16 C3.69 16 1.38 16 -1 16 C-1.02685095 13.52076199 -1.04676547 11.0418116 -1.0625 8.5625 C-1.07506836 7.50192383 -1.07506836 7.50192383 -1.08789062 6.41992188 C-1.09653588 4.61306441 -1.05220011 2.80612397 -1 1 C-0.67 0.67 -0.34 0.34 0 0 Z " fill="#FDF6EA" transform="translate(703,88)"/>
</svg>
