<svg xmlns="http://www.w3.org/2000/svg" width="1200" height="1061" viewBox="0 0 1200 1061" version="1.1"><path d="M -0.013 525.250 C -0.020 525.938, 23.942 593.653, 53.237 675.729 L 106.500 824.958 139.500 824.976 L 172.500 824.995 225.913 675.748 C 255.289 593.661, 279.528 525.931, 279.775 525.236 C 280.133 524.231, 273.516 524.026, 247.431 524.236 L 214.638 524.500 178.530 633.500 C 158.670 693.450, 142.214 743.061, 141.961 743.747 C 141.707 744.433, 126.244 700.333, 107.598 645.747 C 88.953 591.161, 71.918 541.438, 69.744 535.250 L 65.792 524 32.896 524 C 7.253 524, -0.003 524.276, -0.013 525.250 M 319 674.500 L 319 825 349.500 825 L 380 825 380.011 779.750 L 380.022 734.500 403.892 710 C 417.020 696.525, 428.033 685.755, 428.365 686.067 C 428.696 686.379, 446.928 717.654, 468.879 755.567 L 508.791 824.500 548.336 824.761 L 587.881 825.023 528.956 733.373 L 470.031 641.723 488.863 622.111 C 543.041 565.690, 581 525.624, 581 524.859 C 581 524.387, 562.888 524.011, 540.750 524.024 L 500.500 524.048 440.500 590.197 L 380.500 656.347 380.243 590.174 L 379.986 524 349.493 524 L 319 524 319 674.500 M 614.667 524.667 C 614.300 525.033, 614 592.758, 614 675.167 L 614 825 645 825 L 676 825 676 674.500 L 676 524 645.667 524 C 628.983 524, 615.033 524.300, 614.667 524.667 M 819 525.166 C 785.942 526.929, 761.139 536.664, 743.924 554.635 C 730.961 568.169, 724.128 583.860, 723.243 602.130 C 722.413 619.268, 725.829 632.597, 734.486 646 C 749.996 670.014, 771.773 681.862, 823.619 694.495 C 865.887 704.795, 878.512 709.121, 886.329 715.984 C 892.423 721.335, 894.441 726.171, 894.473 735.500 C 894.507 745.519, 891.611 752.319, 884.204 759.610 C 877.869 765.846, 871.716 769.239, 861.470 772.148 C 850.840 775.166, 826.120 775.484, 816 772.733 C 793.827 766.706, 780.375 752.494, 773.881 728.234 C 771.681 720.013, 771.673 720, 768.349 720 C 763.466 720, 712.712 724.955, 712.184 725.483 C 711.396 726.271, 714.951 743.741, 717.635 752.274 C 726.839 781.533, 746.792 803.806, 773.736 814.896 C 783.125 818.761, 798.009 822.483, 810.210 824.016 C 825.377 825.923, 862.659 824.841, 876.235 822.101 C 912.796 814.721, 935.270 798.746, 948.561 770.691 C 954.317 758.541, 956.204 749.451, 956.176 734 C 956.135 711.559, 950.629 695.183, 938.135 680.337 C 922.296 661.519, 901.909 652.198, 846.810 638.582 C 802.010 627.511, 789.736 622.087, 783.912 610.790 C 779.796 602.803, 782.459 590.938, 789.589 585.500 C 805.635 573.261, 842.347 570.145, 862.390 579.321 C 873.580 584.444, 882.328 596.284, 885.202 610.198 L 886.442 616.205 895.471 615.619 C 900.437 615.298, 911.925 614.789, 921 614.489 C 930.075 614.189, 939.862 613.699, 942.750 613.400 C 947.702 612.887, 948 612.698, 948 610.059 C 948 604.153, 944.831 589.497, 941.924 581.958 C 933.956 561.296, 915.933 543.334, 894.385 534.578 C 875.405 526.866, 848.988 523.568, 819 525.166 M 961 550 L 961 576 1005.500 576 L 1050 576 1050 700.500 L 1050 825 1081 825 L 1112 825 1112 700.500 L 1112 576 1156 576 L 1200 576 1200 550 L 1200 524 1080.500 524 L 961 524 961 550 M 684.203 891.444 C 687.791 895.990, 689.036 896.898, 691.750 896.944 C 693.538 896.975, 695 896.760, 695 896.467 C 695 896.173, 693.867 893.698, 692.483 890.967 C 689.968 886.003, 689.963 886, 684.936 886 L 679.905 886 684.203 891.444 M 810.705 890.859 C 808.667 893.531, 807 896.006, 807 896.359 C 807 896.712, 808.762 897, 810.917 897 C 814.002 897, 815.289 896.417, 816.979 894.250 C 818.184 892.706, 819.333 891.986, 819.599 892.608 C 821.138 896.213, 822.690 897.127, 826.751 896.818 L 830.929 896.500 826.829 891.250 C 823.054 886.415, 822.400 886, 818.570 886 C 814.770 886, 814.091 886.420, 810.705 890.859 M 88.500 895.526 L 84.500 897.990 88.816 897.995 C 91.189 897.998, 94.002 897.534, 95.066 896.965 C 96.414 896.243, 97.618 896.261, 99.042 897.023 C 100.166 897.624, 102.753 897.977, 104.792 897.808 L 108.500 897.500 104.693 895.250 C 99.594 892.237, 93.677 892.337, 88.500 895.526 M 1165.500 895.526 L 1161.500 897.990 1166 897.980 C 1168.475 897.974, 1171.151 897.558, 1171.946 897.054 C 1172.833 896.493, 1174.104 896.521, 1175.234 897.125 C 1176.247 897.668, 1178.972 897.974, 1181.288 897.806 L 1185.500 897.500 1181.290 895.250 C 1175.813 892.323, 1170.551 892.415, 1165.500 895.526 M 322.713 899.367 C 316.017 901.245, 311.005 905.584, 307.513 912.525 C 301.967 923.549, 303.869 938.980, 311.804 947.342 C 323.193 959.345, 345.684 956.341, 353.088 941.827 C 358.128 931.948, 357.510 917.909, 351.655 909.304 C 345.695 900.546, 333.474 896.350, 322.713 899.367 M 505.500 898.634 C 496.452 900.880, 490.542 905.212, 486.678 912.432 C 484.857 915.833, 484.500 918.140, 484.500 926.500 C 484.500 935.713, 484.733 936.921, 487.462 941.848 C 494.597 954.729, 510.877 958.676, 524.019 950.709 C 541.208 940.290, 539.623 908.943, 521.500 900.906 C 517.232 899.013, 508.798 897.815, 505.500 898.634 M 560.667 899.434 C 551.766 901.826, 545.947 908.080, 543.425 917.964 C 539.879 931.857, 545.097 946.948, 555.236 952.120 C 560.349 954.729, 569.117 955.597, 574.807 954.057 C 580.268 952.580, 586.754 946.777, 589.263 941.123 C 591.320 936.489, 590.822 935.250, 586.750 934.865 C 585.788 934.774, 584.558 934.655, 584.019 934.600 C 583.479 934.545, 582.017 936.499, 580.769 938.941 C 577.910 944.538, 574.424 947.095, 568.864 947.675 C 563.221 948.262, 556.322 944.853, 553.616 940.138 C 551.154 935.852, 550.267 923.689, 551.972 917.601 C 555.870 903.679, 575.699 901.203, 580.991 913.977 C 582.047 916.529, 582.431 916.692, 585.650 915.966 C 587.580 915.531, 589.379 914.954, 589.649 914.684 C 590.686 913.648, 585.887 906.052, 582.357 903.143 C 578.984 900.362, 571.608 897.893, 567.201 898.067 C 566.265 898.105, 563.325 898.719, 560.667 899.434 M 758 899.098 C 752.615 900.150, 746.378 904.315, 743.263 908.938 C 739.867 913.976, 738.739 919.556, 739.191 929.065 C 739.713 940.050, 743.189 946.928, 750.528 951.500 C 754.843 954.188, 756.182 954.500, 763.422 954.500 C 773.873 954.500, 779.497 951.549, 783.996 943.704 C 785.638 940.842, 786.985 937.959, 786.991 937.297 C 786.998 936.322, 779.971 933.501, 779.468 934.277 C 779.389 934.400, 778.324 936.610, 777.102 939.190 C 775.413 942.754, 773.858 944.374, 770.624 945.940 C 765.282 948.526, 761.749 948.541, 756.500 946 C 750.901 943.289, 747.855 937.731, 747.245 929.108 C 746.473 918.196, 749.519 910.852, 756.262 907.365 C 760.317 905.267, 768.292 905.306, 771.547 907.439 C 773.705 908.853, 777.357 913.651, 778.246 916.240 C 778.616 917.316, 786 915.091, 786 913.903 C 786 908.893, 777.083 900.612, 770.067 899.108 C 764.303 897.872, 764.279 897.872, 758 899.098 M 813 898.889 C 808.072 899.950, 804.008 902.289, 800.362 906.165 C 795.171 911.681, 793.677 915.666, 793.194 925.278 C 792.778 933.549, 792.935 934.425, 795.908 940.464 C 799.612 947.990, 804.730 952.256, 812.201 954.048 C 821.369 956.248, 830.997 953.690, 837.410 947.351 C 846.873 937.996, 847.443 917.719, 838.534 907.311 C 832.623 900.405, 822.093 896.932, 813 898.889 M 926.297 899.008 C 913.514 901.659, 906 912.162, 906 927.378 C 906 949.942, 927.574 961.687, 949 950.786 L 955.500 947.480 955.784 936.740 L 956.068 926 944.534 926 L 933 926 933 929.500 L 933 933 940.500 933 L 948 933 948 938.049 C 948 943.019, 947.934 943.128, 943.750 945.027 C 938.702 947.318, 929.408 947.615, 924.671 945.636 C 911.201 940.008, 910.326 914.814, 923.358 907.802 C 929.336 904.586, 939.525 905.267, 943.670 909.160 C 944.863 910.281, 946.389 912.525, 947.061 914.147 C 948.150 916.777, 948.620 917.025, 951.391 916.431 C 955.987 915.446, 956.119 915.220, 954.443 911.210 C 950.369 901.459, 938.756 896.424, 926.297 899.008 M 1060.190 899.020 C 1042.848 902.625, 1034.232 922.150, 1042.115 939.988 C 1044.683 945.799, 1047.402 948.639, 1053.246 951.614 C 1062.859 956.507, 1074.648 955.803, 1084.750 949.732 L 1090 946.577 1090 936.289 L 1090 926 1078 926 L 1066 926 1066 929.500 L 1066 933 1074 933 L 1082 933 1082 937.877 L 1082 942.754 1077.065 944.877 C 1066.090 949.598, 1054.645 946.668, 1050.190 937.996 C 1048.231 934.181, 1047.928 932.278, 1048.190 925.426 C 1048.450 918.666, 1048.933 916.697, 1051.161 913.332 C 1054.445 908.371, 1059.531 905.849, 1066.374 905.787 C 1073.192 905.726, 1077.453 908.007, 1080.057 913.112 C 1081.907 916.737, 1082.428 917.111, 1084.817 916.521 C 1086.293 916.157, 1087.913 915.455, 1088.417 914.962 C 1089.588 913.818, 1086.482 906.801, 1083.609 904.103 C 1078.820 899.603, 1068.335 897.328, 1060.190 899.020 M 1 900.431 C 1 901.218, 5.565 913.593, 11.144 927.931 L 21.289 954 25.394 953.976 L 29.500 953.951 39.500 928.287 C 45 914.172, 49.644 901.808, 49.820 900.811 C 50.083 899.319, 49.455 899, 46.255 899 L 42.370 899 33.842 922.059 L 25.314 945.118 20.041 930.309 C 17.140 922.164, 13.427 911.788, 11.789 907.250 L 8.811 899 4.905 899 C 2.184 899, 1 899.434, 1 900.431 M 57 926.500 L 57 954 61 954 L 65 954 65 926.500 L 65 899 61 899 L 57 899 57 926.500 M 77 926.500 L 77 954 97.500 954 L 118 954 118 950.500 L 118 947 101.500 947 L 85 947 85 938 L 85 929 100 929 L 115 929 115 925.500 L 115 922 100 922 L 85 922 85 914.500 L 85 907 101 907 L 117 907 117 903 L 117 899 97 899 L 77 899 77 926.500 M 127 926.500 L 127 954 131 954 L 135 954 135 933.754 L 135 913.508 148.507 933.754 L 162.015 954 166.007 954 L 170 954 170 926.440 L 170 898.879 166.250 899.190 L 162.500 899.500 162 919.218 L 161.500 938.937 148.051 918.968 L 134.602 899 130.801 899 L 127 899 127 926.500 M 202 926.500 L 202 954 206 954 L 210 954 210 944.703 L 210 935.406 213.999 931.501 C 216.446 929.111, 218.338 927.966, 218.877 928.549 C 219.361 929.072, 223.654 935.013, 228.417 941.750 L 237.077 954 242.039 954 C 244.767 954, 247 953.773, 247 953.496 C 247 953.219, 241.770 945.907, 235.378 937.246 L 223.756 921.500 234.878 910.960 C 240.995 905.163, 246 900.101, 246 899.710 C 246 899.320, 243.869 899, 241.263 899 L 236.527 899 223.263 912.236 L 210 925.472 210 912.236 L 210 899 206 899 L 202 899 202 926.500 M 252.667 899.667 C 252.300 900.033, 252 912.408, 252 927.167 L 252 954 256 954 L 260 954 260 941.500 L 260 929 273.500 929 L 287 929 287 941.500 L 287 954 291.516 954 L 296.032 954 295.766 926.750 L 295.500 899.500 291.500 899.500 L 287.500 899.500 287.216 910.250 L 286.932 921 273.466 921 L 260 921 260 910 L 260 899 256.667 899 C 254.833 899, 253.033 899.300, 252.667 899.667 M 379.595 899.846 C 378.942 900.903, 359 952.944, 359 953.592 C 359 953.816, 360.913 953.999, 363.250 953.997 L 367.500 953.995 370.336 945.965 L 373.172 937.936 384.222 938.218 L 395.272 938.500 398.221 946.250 L 401.169 954 405.652 954 C 409.603 954, 410.063 953.774, 409.531 952.097 C 409.199 951.051, 404.254 938.788, 398.542 924.847 L 388.156 899.500 384.170 899.197 C 381.977 899.030, 379.919 899.322, 379.595 899.846 M 432 926.500 L 432 954 436 954 L 440 954 440 941.500 L 440 929 453.500 929 L 467 929 467 941.500 L 467 954 471 954 L 475 954 475 926.500 L 475 899 471 899 L 467 899 467 910 L 467 921 453.500 921 L 440 921 440 910 L 440 899 436 899 L 432 899 432 926.500 M 614.424 900.750 C 614.731 901.712, 619.427 913.975, 624.860 928 L 634.739 953.500 638.983 953.500 L 643.228 953.500 653.605 927 C 659.312 912.425, 663.986 900.163, 663.991 899.750 C 663.996 899.337, 662.239 899, 660.088 899 L 656.175 899 653.227 906.750 C 651.606 911.013, 647.854 921.136, 644.890 929.246 C 641.925 937.356, 639.275 943.987, 639 943.981 C 638.725 943.975, 634.911 933.852, 630.525 921.485 L 622.549 899 618.207 899 C 614.526 899, 613.950 899.266, 614.424 900.750 M 674.245 925.794 C 668.610 940.530, 664 952.931, 664 953.351 C 664 953.771, 665.882 953.977, 668.181 953.807 L 672.363 953.500 675.069 946 L 677.775 938.500 688.791 938.218 L 699.807 937.936 702.764 945.718 L 705.721 953.500 710.491 953.810 C 714.105 954.045, 715.136 953.803, 714.747 952.810 C 714.464 952.090, 709.394 939.688, 703.480 925.250 L 692.726 899 688.608 899 L 684.489 899 674.245 925.794 M 853 926.500 L 853 954 856.979 954 L 860.959 954 861.229 933.847 L 861.500 913.694 874.900 933.847 L 888.300 954 892.150 954 L 896 954 896 926.500 L 896 899 892.520 899 L 889.041 899 888.770 919.456 L 888.500 939.912 874.700 919.456 L 860.899 899 856.950 899 L 853 899 853 926.500 M 987 926.500 L 987 954 991 954 L 995 954 995 933.754 L 995 913.508 1008.507 933.754 L 1022.015 954 1026.007 954 L 1030 954 1030 926.500 L 1030 899 1026.021 899 L 1022.041 899 1021.771 919.153 L 1021.500 939.306 1008.100 919.153 L 994.700 899 990.850 899 L 987 899 987 926.500 M 1100 926.500 L 1100 954 1104 954 L 1108 954 1108 941.500 L 1108 929 1121.500 929 L 1135 929 1135 941.500 L 1135 954 1139 954 L 1143 954 1143 926.500 L 1143 899 1139 899 L 1135 899 1135 910 L 1135 921 1121.500 921 L 1108 921 1108 910 L 1108 899 1104 899 L 1100 899 1100 926.500 M 1154 926.479 L 1154 954 1174.500 954 L 1195 954 1195 950.500 L 1195 947 1178.500 947 L 1162 947 1162 938 L 1162 929 1177 929 L 1192 929 1192 925.500 L 1192 922 1177 922 L 1162 922 1162 914.525 L 1162 907.051 1177.750 906.775 L 1193.500 906.500 1193.500 903 L 1193.500 899.500 1173.750 899.229 L 1154 898.958 1154 926.479 M 326.685 906.051 C 317.840 907.570, 312.990 914.989, 313.016 926.962 C 313.029 932.914, 313.506 935.336, 315.282 938.470 C 322.727 951.616, 341.220 950.464, 346.544 936.524 C 348.662 930.978, 348.180 920.104, 345.578 914.730 C 342.390 908.143, 334.802 904.658, 326.685 906.051 M 506.431 905.979 C 501.376 907.123, 497.326 910.077, 494.871 914.410 C 491.432 920.480, 491.496 932.721, 495 938.930 C 498.449 945.041, 504.697 948.369, 511.319 947.622 C 520.707 946.562, 526.349 940.392, 527.591 929.827 C 529.365 914.730, 519.063 903.119, 506.431 905.979 M 815.358 905.994 C 806.602 907.971, 802.100 913.884, 801.246 924.528 C 800.379 935.321, 804.549 943.517, 812.441 946.531 C 823.015 950.569, 833.538 944.383, 835.959 932.705 C 839.377 916.220, 829.097 902.890, 815.358 905.994 M 685.171 917.882 C 683.340 923.172, 681.600 928.288, 681.305 929.250 C 680.823 930.818, 681.620 931, 688.990 931 C 696.419 931, 697.147 930.831, 696.523 929.250 C 696.144 928.288, 694.236 923.225, 692.284 918 C 690.331 912.775, 688.681 908.447, 688.617 908.382 C 688.553 908.317, 687.002 912.592, 685.171 917.882 M 380.113 918.800 C 378.250 924.135, 376.514 929.063, 376.256 929.750 C 375.904 930.686, 377.824 931, 383.893 931 C 388.352 931, 392 930.786, 392 930.523 C 392 929.586, 384.746 910.486, 384.129 909.800 C 383.783 909.415, 381.976 913.465, 380.113 918.800 M 93 961.443 L 93 966 97.557 966 L 102.115 966 101.807 961.750 C 101.501 957.521, 101.479 957.499, 97.250 957.193 L 93 956.885 93 961.443 M 505.667 957.667 C 505.300 958.033, 505 960.058, 505 962.167 L 505 966 509.500 966 L 514 966 514 961.500 L 514 957 510.167 957 C 508.058 957, 506.033 957.300, 505.667 957.667 M 1170 961.443 L 1170 966 1174.557 966 L 1179.115 966 1178.807 961.750 C 1178.501 957.521, 1178.479 957.499, 1174.250 957.193 L 1170 956.885 1170 961.443 M 865.193 983.798 C 870.669 991.331, 872.582 993, 875.739 993 L 878.978 993 876.281 987.500 L 873.583 982 868.735 982 C 864.251 982, 863.985 982.135, 865.193 983.798 M 1113.500 985 L 1110.626 988 1114.009 988 C 1116.816 988, 1125 983.804, 1125 982.364 C 1125 982.164, 1123.059 982, 1120.687 982 C 1117.200 982, 1115.824 982.575, 1113.500 985 M 461.500 991.474 L 457.500 993.938 461.816 993.969 C 464.189 993.986, 467.002 993.534, 468.066 992.965 C 469.414 992.243, 470.618 992.261, 472.042 993.023 C 473.166 993.624, 475.753 993.977, 477.792 993.808 L 481.500 993.500 477.693 991.250 C 472.566 988.220, 466.651 988.302, 461.500 991.474 M 1107 991.333 L 1103.500 993.500 1107.500 994.108 C 1109.700 994.443, 1110.470 994.780, 1109.210 994.858 C 1102.196 995.293, 1093.037 1003.770, 1090.556 1012.122 C 1085.578 1028.887, 1092.979 1045.360, 1107.356 1049.512 C 1115.192 1051.775, 1122.125 1050.877, 1129.115 1046.692 C 1133.459 1044.091, 1135.052 1042.327, 1137.723 1037.163 C 1140.649 1031.504, 1141 1029.942, 1141 1022.572 C 1141 1015.341, 1140.616 1013.550, 1137.894 1008.104 C 1134.625 1001.562, 1130.554 998.031, 1123.297 995.442 L 1119.500 994.088 1123.500 994.013 L 1127.500 993.938 1123.500 991.474 C 1118.408 988.338, 1111.927 988.282, 1107 991.333 M 995.500 994.876 C 983.650 997.993, 976 1008.830, 976 1022.500 C 976 1035.663, 983.239 1046.301, 994.387 1049.521 C 1000.469 1051.278, 1007.675 1051.016, 1012.391 1048.868 C 1014.308 1047.994, 1015.689 1048.372, 1020.488 1051.080 C 1026.038 1054.212, 1026.330 1054.270, 1027.637 1052.482 C 1029.810 1049.510, 1029.268 1048.177, 1025 1046 C 1022.800 1044.878, 1021 1043.763, 1021 1043.524 C 1021 1043.285, 1022.119 1041.441, 1023.486 1039.426 C 1026.722 1034.658, 1027.989 1029.894, 1027.989 1022.500 C 1027.989 1010.732, 1023.598 1002.262, 1015.106 997.649 C 1009.509 994.609, 1001.061 993.414, 995.500 994.876 M 1164.183 995.841 C 1157.581 998.197, 1152.790 1002.736, 1149.958 1009.320 C 1148.094 1013.653, 1147.842 1015.745, 1148.201 1023.938 C 1148.684 1035.004, 1150.516 1039.523, 1156.829 1045.227 C 1159.704 1047.824, 1162.386 1049.146, 1166.521 1050.004 C 1179.302 1052.658, 1189.401 1047.972, 1194.241 1037.144 C 1196.379 1032.359, 1196.017 1031.530, 1191.367 1030.552 C 1188.496 1029.947, 1188.138 1030.167, 1187.091 1033.168 C 1181.975 1047.844, 1161.299 1046.542, 1157.060 1031.277 C 1153.124 1017.105, 1159.279 1003.130, 1170.177 1001.496 C 1176.712 1000.516, 1183.014 1003.403, 1185.423 1008.479 C 1187.088 1011.989, 1187.428 1012.192, 1190.725 1011.657 C 1192.663 1011.343, 1194.528 1010.805, 1194.871 1010.462 C 1195.214 1010.120, 1194.326 1007.738, 1192.898 1005.170 C 1187.624 995.683, 1175.585 991.772, 1164.183 995.841 M 373.300 996.250 C 374.274 998.618, 390.170 1039.510, 392.175 1044.803 L 394.183 1050.106 398.262 1049.803 L 402.340 1049.500 412.181 1024.500 C 424.753 992.560, 424.171 995, 419.218 995 L 415.219 995 406.895 1017.485 C 402.317 1029.852, 398.275 1039.640, 397.914 1039.235 C 397.396 1038.654, 389.634 1017.399, 382.766 997.750 C 381.909 995.299, 381.315 995, 377.295 995 C 374.080 995, 372.934 995.359, 373.300 996.250 M 430 1022.500 L 430 1050 434 1050 L 438 1050 438 1022.500 L 438 995 434 995 L 430 995 430 1022.500 M 450 1022.500 L 450 1050 470.500 1050 L 491 1050 491 1046 L 491 1042 474.500 1042 L 458 1042 458 1033.500 L 458 1025 473 1025 L 488 1025 488 1021.500 L 488 1018 473 1018 L 458 1018 458 1010 L 458 1002 474 1002 L 490 1002 490 998.500 L 490 995 470 995 L 450 995 450 1022.500 M 496 998.500 L 496 1002 504.500 1002 L 513 1002 513 1026 L 513 1050 517.500 1050 L 522 1050 522 1026 L 522 1002 530.500 1002 L 539 1002 539 998.500 L 539 995 517.500 995 L 496 995 496 998.500 M 565 1022.500 L 565 1050 568.979 1050 L 572.959 1050 573.229 1029.847 L 573.500 1009.694 586.900 1029.847 L 600.300 1050 604.150 1050 L 608 1050 608 1022.500 L 608 995 604.500 995 L 601 995 600.997 1015.750 L 600.994 1036.500 587.247 1015.775 L 573.500 995.050 569.250 995.025 L 565 995 565 1022.500 M 624.145 1021.560 C 618.565 1036.167, 614 1048.568, 614 1049.117 C 614 1049.669, 615.839 1049.978, 618.117 1049.807 L 622.233 1049.500 624.939 1042 L 627.645 1034.500 638.656 1034.219 L 649.667 1033.938 652.701 1041.719 L 655.734 1049.500 660.497 1049.810 C 664.106 1050.045, 665.136 1049.803, 664.747 1048.810 C 664.464 1048.090, 659.394 1035.688, 653.480 1021.250 L 642.726 995 638.508 995 L 634.291 995 624.145 1021.560 M 669 1022.500 L 669 1050 672.980 1050 L 676.960 1050 677.230 1028.750 L 677.500 1007.500 684.616 1028.500 L 691.732 1049.500 695.487 1049.500 L 699.241 1049.500 706.558 1028.500 L 713.875 1007.500 713.938 1028.750 L 714 1050 718 1050 L 722 1050 722 1022.500 L 722 995 716.617 995 L 711.233 995 704.448 1014.750 C 700.717 1025.612, 697.235 1035.625, 696.712 1037 C 695.893 1039.154, 694.730 1036.424, 688.297 1017.250 L 680.833 995 674.917 995 L 669 995 669 1022.500 M 799 1022.500 L 799 1050 803 1050 L 807 1050 807 1037.500 L 807 1025 820.500 1025 L 834 1025 834 1037.500 L 834 1050 838 1050 L 842 1050 842 1022.500 L 842 995 838 995 L 834 995 834 1006 L 834 1017 820.500 1017 L 807 1017 807 1006 L 807 995 803 995 L 799 995 799 1022.500 M 867.705 996.250 C 866.244 999.842, 849.601 1043.044, 848.443 1046.250 L 847.089 1050 851.435 1050 L 855.781 1050 858.623 1042 L 861.466 1034 872.530 1034 L 883.595 1034 886.547 1041.996 L 889.500 1049.991 894.218 1049.996 C 898.377 1049.999, 898.851 1049.784, 898.218 1048.181 C 897.823 1047.180, 892.775 1034.805, 887 1020.681 L 876.500 995.001 872.357 995.001 C 869.980 995, 867.997 995.533, 867.705 996.250 M 903 1022.500 L 903 1050 906.979 1050 L 910.959 1050 911.229 1029.750 L 911.500 1009.500 925 1029.723 L 938.500 1049.946 942.750 1049.973 L 947 1050 947 1022.500 L 947 995 943 995 L 939 995 938.997 1015.750 L 938.994 1036.500 925.247 1015.775 L 911.500 995.050 907.250 995.025 L 903 995 903 1022.500 M 1037.172 1016.250 C 1037.453 1033.641, 1037.815 1038.045, 1039.163 1040.500 C 1041.038 1043.915, 1044.349 1047.133, 1048 1049.090 C 1051.634 1051.037, 1065.704 1050.846, 1069.500 1048.797 C 1073.873 1046.438, 1077.898 1041.844, 1079.020 1037.931 C 1079.559 1036.051, 1080 1025.623, 1080 1014.757 L 1080 995 1076 995 L 1072 995 1071.998 1014.250 C 1071.997 1035.329, 1071.164 1039.141, 1066 1041.721 C 1062.142 1043.649, 1054.004 1043.300, 1050.311 1041.048 C 1045.768 1038.278, 1045.012 1034.318, 1045.006 1013.250 L 1045 995 1040.914 995 L 1036.828 995 1037.172 1016.250 M 996.951 1002.283 C 994.999 1002.952, 992.457 1004.186, 991.300 1005.025 C 982.338 1011.525, 981.861 1031.281, 990.484 1038.852 C 994.757 1042.603, 1000.755 1044.380, 1005.231 1043.219 L 1008.500 1042.371 1005.131 1041.196 C 1002.310 1040.212, 1001.860 1039.653, 1002.367 1037.760 C 1002.700 1036.517, 1002.979 1035.162, 1002.986 1034.750 C 1003.011 1033.372, 1005.659 1033.977, 1010.221 1036.403 L 1014.741 1038.806 1017.120 1034.653 C 1019.082 1031.229, 1019.500 1029.095, 1019.500 1022.500 C 1019.500 1015.831, 1019.091 1013.785, 1017.038 1010.201 C 1012.870 1002.921, 1004.597 999.660, 996.951 1002.283 M 1110.843 1001.931 C 1105.628 1003.592, 1101.929 1006.516, 1100.030 1010.478 C 1095.324 1020.298, 1096.877 1033.051, 1103.484 1038.852 C 1112.266 1046.563, 1124.359 1044.717, 1130.038 1034.799 C 1132.091 1031.215, 1132.500 1029.169, 1132.500 1022.500 C 1132.500 1015.831, 1132.091 1013.785, 1130.038 1010.201 C 1128.684 1007.836, 1126.188 1005.043, 1124.492 1003.995 C 1120.801 1001.714, 1114.511 1000.762, 1110.843 1001.931 M 634.413 1015.596 L 630.326 1027 638.770 1027 C 646.408 1027, 647.148 1026.833, 646.523 1025.250 C 646.144 1024.287, 644.236 1019.225, 642.284 1014 C 640.331 1008.775, 638.681 1004.431, 638.617 1004.346 C 638.553 1004.261, 636.661 1009.324, 634.413 1015.596 M 871.244 1007 C 870.680 1008.925, 868.831 1014.212, 867.135 1018.750 L 864.050 1027 872.480 1027 L 880.910 1027 878.339 1020.250 C 876.925 1016.538, 874.981 1011.250, 874.019 1008.500 L 872.270 1003.500 871.244 1007 M 750 1030 L 750 1034 760.500 1034 L 771 1034 771 1030 L 771 1026 760.500 1026 L 750 1026 750 1030 M 466 1057 L 466 1061 470.500 1061 L 475 1061 475 1057 L 475 1053 470.500 1053 L 466 1053 466 1057" stroke="none" fill="#0c4ca4" fill-rule="evenodd"/><path d="M 261.667 0.667 C 260.061 2.272, 261.283 7.016, 264.892 13.192 C 278.638 36.716, 361.097 151.737, 391.646 190 C 406.479 208.579, 423.046 224.915, 431.036 228.839 C 441.265 233.864, 450.001 235.264, 467.500 234.683 C 485.296 234.091, 475.863 236.573, 569 207.977 C 608.875 195.734, 644.425 184.854, 648 183.800 C 652.929 182.347, 656.799 181.965, 664.012 182.218 C 672.500 182.516, 674.343 182.941, 681.143 186.170 C 690.461 190.595, 702.824 198.832, 718.263 210.900 C 733.853 223.086, 797.820 270.013, 798.758 269.952 C 799.166 269.925, 812.100 253.860, 827.500 234.251 C 895.454 147.725, 959.852 68.074, 971.879 55.674 C 987.737 39.325, 1005.307 29.552, 1035.222 20.439 C 1046.526 16.996, 1049.412 14.344, 1048.702 8.050 C 1048.067 2.419, 1045.337 -0, 1039.617 0 C 1036.347 0, 814.454 30.003, 798.637 32.584 C 794.831 33.205, 794.782 33.269, 795.361 36.857 C 795.685 38.861, 797.543 43.727, 799.491 47.672 C 806.044 60.944, 819.078 69.729, 833.946 70.894 L 841.678 71.500 801.941 102.500 C 780.086 119.550, 761.596 133.452, 760.852 133.394 C 760.108 133.335, 750.050 126.656, 738.500 118.551 C 726.950 110.446, 715.017 102.552, 711.982 101.010 C 706.295 98.120, 672.265 90.075, 502.500 51.487 C 295.915 4.530, 264.444 -2.111, 261.667 0.667 M 643.500 224.539 C 631.645 227.504, 619.443 234.848, 574.166 266.270 C 549.600 283.319, 529.143 297.588, 528.706 297.978 C 527.773 298.812, 654.601 449.500, 656.237 449.500 C 657.338 449.500, 778.038 298.446, 777.959 297.166 C 777.879 295.872, 692.812 237.433, 684.218 232.769 C 668.080 224.011, 655.654 221.500, 643.500 224.539" stroke="none" fill="#ec1c24" fill-rule="evenodd"/></svg>